<svg width="889" height="464" viewBox="0 0 889 464" fill="none" xmlns="http://www.w3.org/2000/svg">
<path d="M0 463.259V415.741H23.5694C29.1098 415.741 33.2878 417.089 36.1034 419.785C38.919 422.436 40.3268 426.054 40.3268 430.637C40.3268 435.175 38.919 438.792 36.1034 441.488C33.2878 444.184 29.1098 445.532 23.5694 445.532H12.6021V463.259H0ZM12.6021 435.961H21.9345C24.0689 435.961 25.6584 435.512 26.7029 434.613C27.7474 433.67 28.2696 432.344 28.2696 430.637C28.2696 428.929 27.7474 427.604 26.7029 426.66C25.6584 425.717 24.0689 425.245 21.9345 425.245H12.6021V435.961Z" fill="#E2B5C7"/>
<path d="M207.107 463.259V415.741H241.576V425.245H219.165V434.344H239.941V443.915H219.165V453.688H241.576V463.259H207.107Z" fill="#E2B5C7"/>
<path d="M381.987 439.466C381.987 434.524 382.964 430.232 384.916 426.593C386.869 422.908 389.662 420.055 393.295 418.033C396.928 416.011 401.22 415 406.17 415C411.165 415 415.479 416.011 419.112 418.033C422.745 420.055 425.538 422.908 427.491 426.593C429.489 430.232 430.488 434.524 430.488 439.466C430.488 444.364 429.489 448.655 427.491 452.34C425.538 456.024 422.745 458.9 419.112 460.967C415.479 462.989 411.165 464 406.17 464C401.22 464 396.928 462.989 393.295 460.967C389.708 458.9 386.915 456.024 384.916 452.34C382.964 448.655 381.987 444.364 381.987 439.466ZM395.134 439.466C395.134 443.915 396.043 447.397 397.859 449.913C399.676 452.385 402.446 453.62 406.17 453.62C409.894 453.62 412.686 452.385 414.548 449.913C416.41 447.397 417.341 443.915 417.341 439.466C417.341 435.018 416.41 431.558 414.548 429.087C412.686 426.615 409.894 425.38 406.17 425.38C402.446 425.38 399.676 426.615 397.859 429.087C396.043 431.513 395.134 434.973 395.134 439.466Z" fill="#E2B5C7"/>
<path d="M467.32 463.259V425.784H452.743V415.741H494.5V425.784H479.922V463.259H467.32Z" fill="#E2B5C7"/>
<path d="M561.718 463.259V415.741H595.437V425.245H574.32V434.883H593.87V444.387H574.32V463.259H561.718Z" fill="#E2B5C7"/>
<path d="M620.722 439.466C620.722 434.524 621.699 430.232 623.652 426.593C625.604 422.908 628.397 420.055 632.03 418.033C635.663 416.011 639.955 415 644.905 415C649.9 415 654.214 416.011 657.848 418.033C661.481 420.055 664.273 422.908 666.226 426.593C668.224 430.232 669.223 434.524 669.223 439.466C669.223 444.364 668.224 448.655 666.226 452.34C664.273 456.024 661.481 458.9 657.848 460.967C654.214 462.989 649.9 464 644.905 464C639.955 464 635.663 462.989 632.03 460.967C628.443 458.9 625.65 456.024 623.652 452.34C621.699 448.655 620.722 444.364 620.722 439.466ZM633.869 439.466C633.869 443.915 634.778 447.397 636.594 449.913C638.411 452.385 641.181 453.62 644.905 453.62C648.629 453.62 651.422 452.385 653.283 449.913C655.145 447.397 656.076 443.915 656.076 439.466C656.076 435.018 655.145 431.558 653.283 429.087C651.422 426.615 648.629 425.38 644.905 425.38C641.181 425.38 638.411 426.615 636.594 429.087C634.778 431.513 633.869 434.973 633.869 439.466Z" fill="#E2B5C7"/>
<path d="M719.204 464C712.028 464 706.647 462.248 703.059 458.743C699.472 455.238 697.678 450.003 697.678 443.039V415.741H710.212V443.106C710.212 446.566 710.938 449.194 712.392 450.992C713.845 452.744 716.115 453.62 719.204 453.62C722.292 453.62 724.562 452.744 726.016 450.992C727.469 449.194 728.195 446.566 728.195 443.106V415.741H740.593V443.039C740.593 450.003 738.822 455.238 735.28 458.743C731.738 462.248 726.379 464 719.204 464Z" fill="#E2B5C7"/>
<path d="M843.36 463.259V415.741H862.706C868.382 415.741 873.174 416.707 877.079 418.64C880.985 420.527 883.936 423.245 885.935 426.795C887.978 430.3 889 434.524 889 439.466C889 444.364 887.978 448.588 885.935 452.138C883.936 455.687 880.985 458.428 877.079 460.36C873.174 462.293 868.382 463.259 862.706 463.259H843.36ZM855.962 453.149H861.888C866.838 453.149 870.494 452.025 872.856 449.779C875.263 447.532 876.466 444.094 876.466 439.466C876.466 434.793 875.263 431.356 872.856 429.154C870.494 426.907 866.838 425.784 861.888 425.784H855.962V453.149Z" fill="#E2B5C7"/>
<path fill-rule="evenodd" clip-rule="evenodd" d="M79.1805 415.741L56.701 463.259H69.3031L73.5209 453.62H95.144L99.412 463.259H112.014L89.3984 415.741H79.1805ZM77.5939 444.184L84.2213 428.547H84.5619L91.2459 444.184H77.5939ZM74.344 444.184H77.5939L76.2513 447.352L74.344 444.184Z" fill="#E2B5C7"/>
<path d="M74.344 444.184L76.2513 447.352L77.5939 444.184H74.344Z" fill="#E2B5C7"/>
<path fill-rule="evenodd" clip-rule="evenodd" d="M145.255 460.967C149.115 462.989 153.838 464 159.424 464C162.693 464 165.918 463.685 169.097 463.056C172.321 462.427 175.227 461.506 177.816 460.293V436.501H157.584V445.128H167.53V452.632C166.569 452.869 165.615 453.064 164.669 453.216C163.034 453.486 161.513 453.62 160.105 453.62C155.473 453.62 152.089 452.452 149.955 450.116C147.821 447.779 146.753 444.319 146.753 439.736C146.753 435.108 147.911 431.603 150.228 429.221C152.589 426.795 156.131 425.582 160.854 425.582C162.534 425.582 164.01 425.694 165.282 425.919C166.599 426.144 167.871 426.525 169.097 427.065C170.368 427.559 171.708 428.278 173.116 429.221L176.999 419.718C175.046 418.19 172.707 417.022 169.982 416.213C167.303 415.404 164.215 415 160.718 415C155.041 415 150.182 416.011 146.14 418.033C142.099 420.055 138.988 422.931 136.808 426.66C134.674 430.345 133.606 434.703 133.606 439.736C133.606 444.589 134.583 448.835 136.536 452.475C138.534 456.114 141.44 458.945 145.255 460.967ZM167.53 456.451V452.632C168.275 452.448 169.024 452.238 169.778 452.003L167.53 456.451Z" fill="#E2B5C7"/>
<path d="M167.53 456.451L169.778 452.003C169.024 452.238 168.275 452.448 167.53 452.632V456.451Z" fill="#E2B5C7"/>
<path fill-rule="evenodd" clip-rule="evenodd" d="M310.077 415.741V463.259H321.862V435.839L344.069 463.259H353.333V415.741H341.684V443.174L319.341 415.741H310.077ZM343.66 445.6L341.684 443.174V445.6H343.66Z" fill="#E2B5C7"/>
<path d="M341.684 445.6H343.66L341.684 443.174V445.6Z" fill="#E2B5C7"/>
<path fill-rule="evenodd" clip-rule="evenodd" d="M770.155 415.741V463.259H781.94V435.839L804.147 463.259H813.411V415.741H801.763V443.174L779.42 415.741H770.155ZM803.738 445.6L801.763 443.174V445.6H803.738Z" fill="#E2B5C7"/>
<path d="M801.763 445.6H803.738L801.763 443.174V445.6Z" fill="#E2B5C7"/>
<path fill-rule="evenodd" clip-rule="evenodd" d="M342.288 323.584C366.182 356.011 400.315 372.224 444.688 372.224C489.062 372.224 523.024 356.011 546.576 323.584C570.47 290.816 582.416 244.395 582.416 184.32C582.416 124.245 570.64 78.5067 547.088 47.104C523.536 15.7013 489.403 0 444.688 0C400.315 0 366.182 15.7013 342.288 47.104C318.736 78.5067 306.96 124.416 306.96 184.832C306.96 244.565 318.736 290.816 342.288 323.584ZM412.663 130.855C412.376 130.149 412.544 129.785 412.663 129.691C412.89 129.421 413.992 130.079 414.515 130.442C424.285 135.548 440.763 137.913 448.132 137.82C454.028 137.745 469.41 137.15 476.364 136.862C476.575 136.892 476.641 137.15 476.647 137.275C475.986 141.292 464.874 153.381 462.267 155.54C460.684 156.851 455.437 161.033 451.541 164.138C449.021 166.147 447.066 167.705 447.036 167.742C446.961 167.836 446.904 167.873 446.658 167.892C446.462 167.907 446.324 167.798 446.28 167.742L431.976 155.54C424.946 150.265 417.142 139.19 415.687 136.9C414.232 134.61 413.022 131.738 412.663 130.855ZM448.257 250.537C448.421 252.171 449.164 256.011 450.827 258.309C452.906 261.181 455.305 263.997 458.31 265.254C460.338 266.103 462.022 266.619 464.634 267.418C465.891 267.803 467.364 268.254 469.194 268.84C474.825 270.642 477.547 272.313 477.773 272.913C477.8 272.985 477.837 273.056 477.876 273.131C478.164 273.692 478.577 274.497 476.129 277.475C473.352 280.854 461.031 291.009 446.764 291.497C432.497 291.986 418.419 284.045 412.41 276.574C412.19 276.18 412.116 275.38 413.582 275.335C413.605 275.334 413.628 275.334 413.653 275.333C413.676 275.332 413.7 275.332 413.724 275.331L413.791 275.329L413.972 275.325C416.113 275.278 421.327 275.163 427.471 271.768C432.716 268.87 437.14 264.679 438.695 262.946C440.213 261.5 444.251 256.995 448.257 250.537ZM406.809 139.617C374.335 95.6055 431.397 75.0974 431.397 75.0974C423.499 74.4436 414.556 77.2031 408.297 79.7125C400.816 82.7115 394.127 87.4646 389.169 93.7858C380.826 104.423 380.091 115.604 381.571 124.339C382.91 132.242 386.473 139.593 391.553 145.82C403.575 160.556 421.641 176.149 433.34 185.653C419.039 197.079 395.887 216.686 388.08 229.715C388.08 229.715 367.668 260.592 395.967 284.787C395.967 284.787 412.204 296.539 431.689 297C431.689 297 380.89 280.409 401.998 239.162C401.998 239.162 414.988 215.198 443.465 196.377C444.136 195.934 444.801 195.483 445.46 195.025C446.12 195.483 446.785 195.934 447.456 196.377C475.933 215.198 488.923 239.162 488.923 239.162C510.031 280.409 459.232 297 459.232 297C478.717 296.539 494.954 284.787 494.954 284.787C523.253 260.592 502.84 229.715 502.84 229.715C495.033 216.686 471.881 197.079 457.58 185.653C469.279 176.149 487.345 160.556 499.367 145.82C504.447 139.593 508.01 132.242 509.35 124.339C510.83 115.604 510.094 104.423 501.752 93.7858C496.794 87.4646 490.104 82.7115 482.624 79.7125C476.365 77.2031 467.421 74.4436 459.524 75.0974C459.524 75.0974 516.586 95.6055 484.111 139.617C484.111 139.617 473.751 155.856 445.46 176.257C417.17 155.856 406.809 139.617 406.809 139.617Z" fill="#E2B5C7"/>
<path fill-rule="evenodd" clip-rule="evenodd" d="M751.8 311.072V372H841.4V311.072H888.504V240.928H841.4V11.04H766.136L603.32 245.536V311.072H751.8ZM751.8 122.656V240.928H669.368L751.8 122.656Z" fill="#E2B5C7"/>
<path fill-rule="evenodd" clip-rule="evenodd" d="M148.8 311.072V372H238.4V311.072H285.504V240.928H238.4V11.04H163.136L0.320312 245.536V311.072H148.8ZM148.8 122.656V240.928H66.3683L148.8 122.656Z" fill="#E2B5C7"/>
</svg>
